<svg width="18" height="18" viewBox="0 0 18 18" fill="none" xmlns="http://www.w3.org/2000/svg">
<path d="M15.1205 2.87933C13.5497 1.3085 11.3938 0.333496 8.99967 0.333496C6.70113 0.333496 4.49673 1.24659 2.87142 2.8719C1.2461 4.49722 0.333008 6.70162 0.333008 9.00016C0.333008 11.2987 1.2461 13.5031 2.87142 15.1284C4.49673 16.7537 6.70113 17.6668 8.99967 17.6668C13.0405 17.6668 16.4097 14.9043 17.3738 11.1668H15.1205C14.2322 13.691 11.8272 15.5002 8.99967 15.5002C7.27577 15.5002 5.62247 14.8153 4.40348 13.5964C3.18449 12.3774 2.49967 10.7241 2.49967 9.00016C2.49967 7.27626 3.18449 5.62295 4.40348 4.40397C5.62247 3.18498 7.27577 2.50016 8.99967 2.50016C10.798 2.50016 12.4013 3.24766 13.5713 4.4285L10.083 7.91683H17.6663V0.333496L15.1205 2.87933Z" fill="white"/>
</svg>
