<?xml version="1.0" encoding="UTF-8"?>
<!DOCTYPE svg PUBLIC "-//W3C//DTD SVG 1.1//EN" "http://www.w3.org/Graphics/SVG/1.1/DTD/svg11.dtd">
<svg xmlns="http://www.w3.org/2000/svg" version="1.1" width="2000px" height="1247px" style="shape-rendering:geometricPrecision; text-rendering:geometricPrecision; image-rendering:optimizeQuality; fill-rule:evenodd; clip-rule:evenodd" xmlns:xlink="http://www.w3.org/1999/xlink">
<g><path style="opacity:0.882" fill="#bfd7b7" d="M 1198.5,-0.5 C 1227.5,-0.5 1256.5,-0.5 1285.5,-0.5C 1468.97,15.9706 1618.47,95.304 1734,237.5C 1833.65,368.156 1876.98,515.823 1864,680.5C 1843.6,866.214 1759.43,1015.05 1611.5,1127C 1514.32,1197.39 1405.65,1237.23 1285.5,1246.5C 1256.5,1246.5 1227.5,1246.5 1198.5,1246.5C 1015.52,1230.11 866.35,1151.11 751,1009.5C 688.283,929.037 647.449,838.371 628.5,737.5C 630.5,737.5 632.5,737.5 634.5,737.5C 666.969,898.713 748.969,1027.88 880.5,1125C 1025.98,1226.37 1186.31,1261.37 1361.5,1230C 1535.59,1192.46 1670.76,1099.29 1767,950.5C 1849.02,815.412 1877.02,669.745 1851,513.5C 1819.86,353.287 1739.69,224.12 1610.5,126C 1463.71,20.7663 1301.05,-15.9003 1122.5,16C 963.702,49.9277 836.202,131.761 740,261.5C 686.818,335.893 651.651,418.227 634.5,508.5C 632.5,508.5 630.5,508.5 628.5,508.5C 659.976,348.952 739.976,220.119 868.5,122C 966.664,49.8827 1076.66,9.04936 1198.5,-0.5 Z"/></g>
<g><path style="opacity:0.875" fill="#bed6b6" d="M 467.5,520.5 C 471.833,520.5 476.167,520.5 480.5,520.5C 480.5,524.833 480.5,529.167 480.5,533.5C 476.167,533.5 471.833,533.5 467.5,533.5C 467.5,529.167 467.5,524.833 467.5,520.5 Z"/></g>
<g><path style="opacity:0.934" fill="#bfd6b8" d="M 1137.5,520.5 C 1141.83,520.5 1146.17,520.5 1150.5,520.5C 1150.5,549.167 1150.5,577.833 1150.5,606.5C 1146.17,606.5 1141.83,606.5 1137.5,606.5C 1137.5,577.833 1137.5,549.167 1137.5,520.5 Z"/></g>
<g><path style="opacity:0.957" fill="#bed7b6" d="M 394.5,522.5 C 410.224,522.063 425.891,522.563 441.5,524C 444,525.167 445.833,527 447,529.5C 448.217,535.101 448.717,540.768 448.5,546.5C 444.167,546.5 439.833,546.5 435.5,546.5C 435.5,542.833 435.5,539.167 435.5,535.5C 422.5,535.5 409.5,535.5 396.5,535.5C 396.5,543.167 396.5,550.833 396.5,558.5C 410.837,558.333 425.171,558.5 439.5,559C 444.551,560.717 447.385,564.217 448,569.5C 448.667,578.167 448.667,586.833 448,595.5C 447.355,600.808 444.522,604.308 439.5,606C 423.167,606.667 406.833,606.667 390.5,606C 387.087,604.923 384.587,602.756 383,599.5C 382.501,594.177 382.334,588.844 382.5,583.5C 386.5,583.5 390.5,583.5 394.5,583.5C 394.5,586.833 394.5,590.167 394.5,593.5C 408.167,593.5 421.833,593.5 435.5,593.5C 435.5,586.167 435.5,578.833 435.5,571.5C 421.496,571.667 407.496,571.5 393.5,571C 389.934,570.3 387.1,568.467 385,565.5C 383.377,553.93 383.043,542.264 384,530.5C 386.271,526.044 389.771,523.378 394.5,522.5 Z"/></g>
<g><path style="opacity:0.982" fill="#bed7b6" d="M 797.5,522.5 C 820.167,522.5 842.833,522.5 865.5,522.5C 865.5,526.833 865.5,531.167 865.5,535.5C 856.167,535.5 846.833,535.5 837.5,535.5C 837.5,559.167 837.5,582.833 837.5,606.5C 833.5,606.5 829.5,606.5 825.5,606.5C 825.5,582.833 825.5,559.167 825.5,535.5C 816.167,535.5 806.833,535.5 797.5,535.5C 797.5,531.167 797.5,526.833 797.5,522.5 Z"/></g>
<g><path style="opacity:0.945" fill="#bed6b6" d="M 510.5,525.5 C 514.5,525.5 518.5,525.5 522.5,525.5C 522.5,531.833 522.5,538.167 522.5,544.5C 529.167,544.5 535.833,544.5 542.5,544.5C 542.5,548.5 542.5,552.5 542.5,556.5C 535.833,556.5 529.167,556.5 522.5,556.5C 522.5,569.167 522.5,581.833 522.5,594.5C 529.167,594.5 535.833,594.5 542.5,594.5C 542.5,598.5 542.5,602.5 542.5,606.5C 534.16,606.666 525.827,606.5 517.5,606C 515.376,604.878 513.543,603.378 512,601.5C 510.533,586.597 510.033,571.597 510.5,556.5C 505.5,556.5 500.5,556.5 495.5,556.5C 495.5,552.5 495.5,548.5 495.5,544.5C 500.5,544.5 505.5,544.5 510.5,544.5C 510.5,538.167 510.5,531.833 510.5,525.5 Z"/></g>
<g><path style="opacity:0.869" fill="#bed6b6" d="M 467.5,544.5 C 471.833,544.5 476.167,544.5 480.5,544.5C 480.5,565.167 480.5,585.833 480.5,606.5C 476.167,606.5 471.833,606.5 467.5,606.5C 467.5,585.833 467.5,565.167 467.5,544.5 Z"/></g>
<g><path style="opacity:0.945" fill="#bed6b6" d="M 564.5,544.5 C 578.504,544.333 592.504,544.5 606.5,545C 608.624,546.122 610.457,547.622 612,549.5C 613.475,568.407 613.975,587.407 613.5,606.5C 609.5,606.5 605.5,606.5 601.5,606.5C 601.662,604.473 601.495,602.473 601,600.5C 599.749,603.381 597.583,605.214 594.5,606C 585.833,606.667 577.167,606.667 568.5,606C 565.417,605.214 563.251,603.381 562,600.5C 560,591.5 560,582.5 562,573.5C 563.663,571.083 565.829,569.25 568.5,568C 579.495,567.5 590.495,567.333 601.5,567.5C 601.5,563.833 601.5,560.167 601.5,556.5C 589.167,556.5 576.833,556.5 564.5,556.5C 564.5,552.5 564.5,548.5 564.5,544.5 Z M 572.5,579.5 C 582.167,579.5 591.833,579.5 601.5,579.5C 601.5,584.5 601.5,589.5 601.5,594.5C 591.833,594.5 582.167,594.5 572.5,594.5C 572.5,589.5 572.5,584.5 572.5,579.5 Z"/></g>
<g><path style="opacity:0.943" fill="#bed7b7" d="M 624.5,544.5 C 629.099,544.2 633.599,544.533 638,545.5C 643.353,560.399 649.186,575.066 655.5,589.5C 661.687,574.948 667.687,560.281 673.5,545.5C 677.833,544.167 682.167,544.167 686.5,545.5C 678.098,565.711 670.098,586.044 662.5,606.5C 657.833,606.5 653.167,606.5 648.5,606.5C 640.699,585.767 632.699,565.1 624.5,544.5 Z"/></g>
<g><path style="opacity:0.943" fill="#bfd6b7" d="M 700.5,544.5 C 714.837,544.333 729.171,544.5 743.5,545C 746.728,546.563 748.895,549.063 750,552.5C 750.5,570.497 750.667,588.497 750.5,606.5C 746.5,606.5 742.5,606.5 738.5,606.5C 738.663,604.143 738.497,601.81 738,599.5C 736.5,602.333 734.333,604.5 731.5,606C 721.758,606.92 712.092,606.587 702.5,605C 700.19,603.363 698.69,601.196 698,598.5C 697.333,590.833 697.333,583.167 698,575.5C 699.167,571.667 701.667,569.167 705.5,568C 716.495,567.5 727.495,567.333 738.5,567.5C 738.5,563.833 738.5,560.167 738.5,556.5C 725.833,556.5 713.167,556.5 700.5,556.5C 700.5,552.5 700.5,548.5 700.5,544.5 Z M 709.5,579.5 C 719.167,579.5 728.833,579.5 738.5,579.5C 738.5,584.5 738.5,589.5 738.5,594.5C 728.833,594.5 719.167,594.5 709.5,594.5C 709.5,589.5 709.5,584.5 709.5,579.5 Z"/></g>
<g><path style="opacity:0.944" fill="#bed7b6" d="M 870.5,544.5 C 874.5,544.5 878.5,544.5 882.5,544.5C 882.34,546.199 882.506,547.866 883,549.5C 884.543,547.622 886.376,546.122 888.5,545C 895.5,544.333 902.5,544.333 909.5,545C 913.785,546.729 916.285,549.895 917,554.5C 917.499,558.486 917.666,562.486 917.5,566.5C 913.167,566.5 908.833,566.5 904.5,566.5C 904.5,563.167 904.5,559.833 904.5,556.5C 897.167,556.5 889.833,556.5 882.5,556.5C 882.5,573.167 882.5,589.833 882.5,606.5C 878.5,606.5 874.5,606.5 870.5,606.5C 870.5,585.833 870.5,565.167 870.5,544.5 Z"/></g>
<g><path style="opacity:0.938" fill="#bfd6b6" d="M 933.5,544.5 C 947.504,544.333 961.504,544.5 975.5,545C 979.77,546.27 982.27,549.104 983,553.5C 983.5,571.164 983.667,588.83 983.5,606.5C 979.167,606.5 974.833,606.5 970.5,606.5C 970.66,604.801 970.494,603.134 970,601.5C 968.457,603.378 966.624,604.878 964.5,606C 954.758,606.92 945.092,606.587 935.5,605C 933.622,603.457 932.122,601.624 931,599.5C 930.333,591.5 930.333,583.5 931,575.5C 932.167,571.667 934.667,569.167 938.5,568C 949.161,567.5 959.828,567.333 970.5,567.5C 970.5,563.833 970.5,560.167 970.5,556.5C 958.167,556.5 945.833,556.5 933.5,556.5C 933.5,552.5 933.5,548.5 933.5,544.5 Z M 942.5,579.5 C 951.833,579.5 961.167,579.5 970.5,579.5C 970.5,584.5 970.5,589.5 970.5,594.5C 961.167,594.5 951.833,594.5 942.5,594.5C 942.5,589.5 942.5,584.5 942.5,579.5 Z"/></g>
<g><path style="opacity:0.941" fill="#bed7b6" d="M 994.5,544.5 C 998.884,544.174 1003.22,544.508 1007.5,545.5C 1013.33,560.5 1019.17,575.5 1025,590.5C 1031.2,575.58 1037.2,560.58 1043,545.5C 1047.41,544.368 1051.91,544.201 1056.5,545C 1048.17,565.333 1039.83,585.667 1031.5,606C 1027.13,606.828 1022.8,606.661 1018.5,605.5C 1010.1,585.289 1002.1,564.956 994.5,544.5 Z"/></g>
<g><path style="opacity:0.951" fill="#bed7b7" d="M 1074.5,544.5 C 1087.17,544.333 1099.84,544.5 1112.5,545C 1117.08,546.981 1119.58,550.481 1120,555.5C 1120.5,564.16 1120.67,572.827 1120.5,581.5C 1106.83,581.5 1093.17,581.5 1079.5,581.5C 1079.5,585.833 1079.5,590.167 1079.5,594.5C 1093.17,594.5 1106.83,594.5 1120.5,594.5C 1120.5,598.5 1120.5,602.5 1120.5,606.5C 1105.16,606.667 1089.83,606.5 1074.5,606C 1072.38,604.878 1070.54,603.378 1069,601.5C 1067.36,584.925 1067.03,568.258 1068,551.5C 1069.42,548.394 1071.59,546.06 1074.5,544.5 Z M 1079.5,556.5 C 1088.83,556.5 1098.17,556.5 1107.5,556.5C 1107.5,560.833 1107.5,565.167 1107.5,569.5C 1098.17,569.5 1088.83,569.5 1079.5,569.5C 1079.5,565.167 1079.5,560.833 1079.5,556.5 Z"/></g>
<g><path style="opacity:0.949" fill="#bed6b6" d="M 1207.5,544.5 C 1221.5,544.333 1235.5,544.5 1249.5,545C 1251.62,546.122 1253.46,547.622 1255,549.5C 1256.47,568.407 1256.97,587.407 1256.5,606.5C 1252.5,606.5 1248.5,606.5 1244.5,606.5C 1244.66,604.473 1244.5,602.473 1244,600.5C 1242.75,603.381 1240.58,605.214 1237.5,606C 1228.83,606.667 1220.17,606.667 1211.5,606C 1208.42,605.214 1206.25,603.381 1205,600.5C 1203,591.5 1203,582.5 1205,573.5C 1206.66,571.083 1208.83,569.25 1211.5,568C 1222.49,567.5 1233.49,567.333 1244.5,567.5C 1244.5,563.833 1244.5,560.167 1244.5,556.5C 1232.17,556.5 1219.83,556.5 1207.5,556.5C 1207.5,552.5 1207.5,548.5 1207.5,544.5 Z M 1216.5,579.5 C 1225.83,579.5 1235.17,579.5 1244.5,579.5C 1244.5,584.5 1244.5,589.5 1244.5,594.5C 1235.17,594.5 1225.83,594.5 1216.5,594.5C 1216.5,589.5 1216.5,584.5 1216.5,579.5 Z"/></g>
<g><path style="opacity:0.944" fill="#bed6b7" d="M 1282.5,544.5 C 1292.17,544.334 1301.84,544.5 1311.5,545C 1313.62,546.122 1315.46,547.622 1317,549.5C 1317.49,547.866 1317.66,546.199 1317.5,544.5C 1321.83,544.5 1326.17,544.5 1330.5,544.5C 1330.67,569.836 1330.5,595.169 1330,620.5C 1329.36,625.808 1326.52,629.308 1321.5,631C 1308.17,631.5 1294.84,631.667 1281.5,631.5C 1281.5,627.5 1281.5,623.5 1281.5,619.5C 1293.5,619.5 1305.5,619.5 1317.5,619.5C 1317.5,614.5 1317.5,609.5 1317.5,604.5C 1306.16,604.667 1294.83,604.5 1283.5,604C 1280.46,602.969 1277.96,601.135 1276,598.5C 1274.38,583.235 1274.05,567.901 1275,552.5C 1276.38,548.625 1278.88,545.958 1282.5,544.5 Z M 1286.5,556.5 C 1296.83,556.5 1307.17,556.5 1317.5,556.5C 1317.5,568.167 1317.5,579.833 1317.5,591.5C 1307.17,591.5 1296.83,591.5 1286.5,591.5C 1286.5,579.833 1286.5,568.167 1286.5,556.5 Z"/></g>
<g><path style="opacity:0.952" fill="#bed7b6" d="M 1355.5,544.5 C 1368.17,544.333 1380.84,544.5 1393.5,545C 1396.17,546.25 1398.34,548.083 1400,550.5C 1400.5,560.828 1400.67,571.161 1400.5,581.5C 1387.17,581.5 1373.83,581.5 1360.5,581.5C 1360.5,585.833 1360.5,590.167 1360.5,594.5C 1373.83,594.5 1387.17,594.5 1400.5,594.5C 1400.5,598.5 1400.5,602.5 1400.5,606.5C 1385.5,606.667 1370.5,606.5 1355.5,606C 1351.06,603.889 1348.56,600.389 1348,595.5C 1347.33,582.167 1347.33,568.833 1348,555.5C 1348.56,550.34 1351.06,546.673 1355.5,544.5 Z M 1360.5,556.5 C 1369.83,556.5 1379.17,556.5 1388.5,556.5C 1388.5,560.833 1388.5,565.167 1388.5,569.5C 1379.17,569.5 1369.83,569.5 1360.5,569.5C 1360.5,565.167 1360.5,560.833 1360.5,556.5 Z"/></g>
<g><path style="opacity:0.936" fill="#bed7b7" d="M 1418.5,544.5 C 1422.83,544.5 1427.17,544.5 1431.5,544.5C 1431.34,546.199 1431.51,547.866 1432,549.5C 1433.54,547.622 1435.38,546.122 1437.5,545C 1447.17,544.333 1456.83,544.333 1466.5,545C 1470.77,546.27 1473.27,549.104 1474,553.5C 1474.5,571.164 1474.67,588.83 1474.5,606.5C 1470.17,606.5 1465.83,606.5 1461.5,606.5C 1461.5,589.833 1461.5,573.167 1461.5,556.5C 1451.5,556.5 1441.5,556.5 1431.5,556.5C 1431.5,573.167 1431.5,589.833 1431.5,606.5C 1427.17,606.5 1422.83,606.5 1418.5,606.5C 1418.5,585.833 1418.5,565.167 1418.5,544.5 Z"/></g>
<g><path style="opacity:0.945" fill="#bed6b6" d="M 1499.5,544.5 C 1512.17,544.333 1524.84,544.5 1537.5,545C 1540.58,545.786 1542.75,547.619 1544,550.5C 1545.34,555.736 1545.84,561.07 1545.5,566.5C 1541.17,566.5 1536.83,566.5 1532.5,566.5C 1532.5,563.167 1532.5,559.833 1532.5,556.5C 1523.17,556.5 1513.83,556.5 1504.5,556.5C 1504.5,569.167 1504.5,581.833 1504.5,594.5C 1513.83,594.5 1523.17,594.5 1532.5,594.5C 1532.5,590.833 1532.5,587.167 1532.5,583.5C 1536.83,583.5 1541.17,583.5 1545.5,583.5C 1545.85,589.262 1545.35,594.928 1544,600.5C 1542.75,603.381 1540.58,605.214 1537.5,606C 1524.07,606.962 1510.74,606.629 1497.5,605C 1495.62,603.457 1494.12,601.624 1493,599.5C 1492.33,583.5 1492.33,567.5 1493,551.5C 1494.69,548.642 1496.86,546.309 1499.5,544.5 Z"/></g>
<g><path style="opacity:0.941" fill="#bed7b6" d="M 1556.5,544.5 C 1560.88,544.174 1565.22,544.508 1569.5,545.5C 1574.97,558.592 1580.64,571.592 1586.5,584.5C 1592.42,571.647 1598.09,558.647 1603.5,545.5C 1607.78,544.508 1612.12,544.174 1616.5,544.5C 1604.85,573.601 1592.52,602.435 1579.5,631C 1575.46,631.827 1571.46,631.66 1567.5,630.5C 1571.92,620.825 1575.92,610.991 1579.5,601C 1571.96,582.09 1564.29,563.257 1556.5,544.5 Z"/></g>
<g><path style="opacity:0.901" fill="#bed7b6" d="M 382.5,656.5 C 389.841,656.334 397.174,656.5 404.5,657C 405.337,658.011 405.67,659.178 405.5,660.5C 403.654,660.222 402.32,660.889 401.5,662.5C 403.727,667.954 406.227,673.287 409,678.5C 411.037,672.929 413.204,667.429 415.5,662C 413.564,661.187 411.564,660.687 409.5,660.5C 409.33,659.178 409.663,658.011 410.5,657C 416.528,656.17 422.528,656.336 428.5,657.5C 428.833,658.167 429.167,658.833 429.5,659.5C 427.368,660.598 425.202,661.598 423,662.5C 419.061,670.045 415.394,677.712 412,685.5C 411.171,690.533 411.338,695.533 412.5,700.5C 415.206,700.887 417.539,701.887 419.5,703.5C 419.291,704.086 418.957,704.586 418.5,705C 410.147,705.832 401.813,705.665 393.5,704.5C 393.291,703.914 392.957,703.414 392.5,703C 394.98,702.04 397.48,701.207 400,700.5C 400.667,696.167 400.667,691.833 400,687.5C 396.218,678.769 392.051,670.269 387.5,662C 383.882,661.871 382.215,660.038 382.5,656.5 Z"/></g>
<g><path style="opacity:0.915" fill="#bed7b6" d="M 1536.5,664.5 C 1538.17,664.5 1539.83,664.5 1541.5,664.5C 1541.5,667.833 1541.5,671.167 1541.5,674.5C 1544.83,674.5 1548.17,674.5 1551.5,674.5C 1551.5,676.5 1551.5,678.5 1551.5,680.5C 1548.42,680.74 1545.42,680.407 1542.5,679.5C 1541.34,685.472 1541.17,691.472 1542,697.5C 1544.76,698.654 1547.43,698.321 1550,696.5C 1551.3,697.098 1552.13,698.098 1552.5,699.5C 1547.54,705.814 1541.2,707.814 1533.5,705.5C 1532.42,704.335 1531.58,703.002 1531,701.5C 1530.42,694.148 1530.58,686.815 1531.5,679.5C 1526.88,680.592 1525.04,678.925 1526,674.5C 1531.26,673.075 1534.76,669.741 1536.5,664.5 Z"/></g>
<g><path style="opacity:0.898" fill="#bed7b7" d="M 841.5,672.5 C 851.841,672.841 857.174,678.174 857.5,688.5C 851.203,689.32 844.869,689.653 838.5,689.5C 840.54,700.012 846.207,702.345 855.5,696.5C 858.08,698.713 858.08,700.88 855.5,703C 846.342,708.292 837.842,707.458 830,700.5C 823.779,686.643 827.612,677.31 841.5,672.5 Z M 840.5,678.5 C 843.815,678.972 846.149,680.805 847.5,684C 844.518,684.498 841.518,684.665 838.5,684.5C 838.604,682.297 839.27,680.297 840.5,678.5 Z"/></g>
<g><path style="opacity:0.905" fill="#bed7b6" d="M 1404.5,672.5 C 1415.58,672.243 1420.91,677.576 1420.5,688.5C 1414.21,689.372 1407.88,689.705 1401.5,689.5C 1403.88,699.893 1409.71,702.226 1419,696.5C 1420.08,697.665 1420.92,698.998 1421.5,700.5C 1411.61,708.822 1402.11,708.489 1393,699.5C 1387.66,686.3 1391.5,677.3 1404.5,672.5 Z M 1403.5,678.5 C 1407.19,678.186 1409.53,679.852 1410.5,683.5C 1407.5,684.833 1404.5,684.833 1401.5,683.5C 1402.46,681.925 1403.12,680.258 1403.5,678.5 Z"/></g>
<g><path style="opacity:0.915" fill="#bfd7b7" d="M 480.5,673.5 C 497.986,671.485 505.486,679.152 503,696.5C 501.073,701.428 497.573,704.594 492.5,706C 476.685,708.182 469.185,701.349 470,685.5C 471.28,679.396 474.78,675.396 480.5,673.5 Z M 485.5,677.5 C 489.282,678.788 491.449,681.455 492,685.5C 492.985,690.689 492.485,695.689 490.5,700.5C 487.433,702.052 484.933,701.385 483,698.5C 480.543,692.914 480.21,687.247 482,681.5C 482.69,679.65 483.856,678.316 485.5,677.5 Z"/></g>
<g><path style="opacity:0.929" fill="#bed7b6" d="M 550.5,673.5 C 553.833,673.5 557.167,673.5 560.5,673.5C 559.079,681.2 559.246,688.866 561,696.5C 562.154,697.743 563.488,698.743 565,699.5C 571.002,693.65 572.836,686.65 570.5,678.5C 568.833,678.5 567.167,678.5 565.5,678.5C 565.67,677.178 565.337,676.011 564.5,675C 570.135,674.096 575.802,673.596 581.5,673.5C 581.248,682.873 581.582,692.207 582.5,701.5C 583.873,701.343 585.207,701.51 586.5,702C 587.833,703 587.833,704 586.5,705C 581.511,705.499 576.511,705.666 571.5,705.5C 571.633,700.728 570.3,700.562 567.5,705C 559.056,709.521 553.222,707.355 550,698.5C 549.5,691.842 549.334,685.175 549.5,678.5C 545.759,679.401 543.759,678.068 543.5,674.5C 546.059,674.802 548.393,674.468 550.5,673.5 Z"/></g>
<g><path style="opacity:0.913" fill="#bed7b6" d="M 698.5,672.5 C 702.733,672.864 705.899,674.864 708,678.5C 708.5,685.158 708.666,691.825 708.5,698.5C 710.144,698.714 711.644,698.38 713,697.5C 714.187,699.044 714.52,700.711 714,702.5C 708.797,707.156 703.464,707.49 698,703.5C 691.913,707.741 686.246,707.407 681,702.5C 680.654,700.782 680.154,699.115 679.5,697.5C 680.154,695.885 680.654,694.218 681,692.5C 686.092,689.517 691.592,687.684 697.5,687C 699.345,683.213 698.178,681.046 694,680.5C 690.487,680.893 687.153,681.893 684,683.5C 682.378,683.046 681.212,682.046 680.5,680.5C 685.883,676.135 691.883,673.469 698.5,672.5 Z M 694.5,692.5 C 695.5,692.5 696.5,692.5 697.5,692.5C 698.422,696.482 696.922,698.816 693,699.5C 689.485,696.224 689.985,693.89 694.5,692.5 Z"/></g>
<g><path style="opacity:0.923" fill="#bed7b6" d="M 778.5,672.5 C 782.145,672.727 785.145,674.227 787.5,677C 786.404,680.792 785.404,684.625 784.5,688.5C 780.169,689.549 778.003,687.882 778,683.5C 777.311,682.643 776.478,681.977 775.5,681.5C 770.501,687.172 769.501,693.505 772.5,700.5C 774.115,701.154 775.782,701.654 777.5,702C 778.833,703 778.833,704 777.5,705C 769.841,705.5 762.174,705.666 754.5,705.5C 754.384,702.09 756.05,700.756 759.5,701.5C 759.831,694.137 759.497,686.803 758.5,679.5C 756.111,679.021 754.444,677.688 753.5,675.5C 759.08,674.102 764.746,673.436 770.5,673.5C 770.343,674.873 770.51,676.207 771,677.5C 773.17,675.177 775.67,673.51 778.5,672.5 Z"/></g>
<g><path style="opacity:0.917" fill="#bfd7b7" d="M 961.5,673.5 C 982.581,672.659 989.081,681.992 981,701.5C 975.344,706.193 968.844,707.693 961.5,706C 951.29,700.72 948.123,692.553 952,681.5C 954.161,677.495 957.328,674.829 961.5,673.5 Z M 966.5,677.5 C 971.431,680.694 973.764,685.36 973.5,691.5C 973.458,694.259 972.958,696.925 972,699.5C 969.034,702.265 966.367,701.932 964,698.5C 961.185,692.642 960.851,686.642 963,680.5C 964.145,679.364 965.312,678.364 966.5,677.5 Z"/></g>
<g><path style="opacity:0.919" fill="#bed6b6" d="M 1030.5,673.5 C 1034.17,673.5 1037.83,673.5 1041.5,673.5C 1040.45,680.13 1040.29,686.797 1041,693.5C 1044.59,701.432 1047.92,701.099 1051,692.5C 1051.5,687.845 1051.67,683.179 1051.5,678.5C 1048.71,678.923 1046.71,677.923 1045.5,675.5C 1051.06,673.977 1056.73,673.31 1062.5,673.5C 1062.33,682.506 1062.5,691.506 1063,700.5C 1065.18,700.988 1067.01,701.988 1068.5,703.5C 1068.29,704.086 1067.96,704.586 1067.5,705C 1062.51,705.499 1057.51,705.666 1052.5,705.5C 1052.63,700.728 1051.3,700.562 1048.5,705C 1042.26,708.816 1036.76,707.983 1032,702.5C 1030.6,694.585 1030.1,686.585 1030.5,678.5C 1028.5,678.5 1026.5,678.5 1024.5,678.5C 1024.5,677.167 1024.5,675.833 1024.5,674.5C 1026.74,674.795 1028.74,674.461 1030.5,673.5 Z"/></g>
<g><path style="opacity:0.928" fill="#bed7b6" d="M 1132.5,672.5 C 1136.14,672.727 1139.14,674.227 1141.5,677C 1140.11,680.717 1139.11,684.55 1138.5,688.5C 1136.8,688.66 1135.13,688.494 1133.5,688C 1132.79,685.411 1131.46,683.245 1129.5,681.5C 1128.52,681.977 1127.69,682.643 1127,683.5C 1124.94,687.892 1124.44,692.392 1125.5,697C 1125.83,698.167 1126.17,699.333 1126.5,700.5C 1128.38,701.093 1130.22,701.76 1132,702.5C 1132.62,703.449 1132.45,704.282 1131.5,705C 1123.84,705.5 1116.17,705.666 1108.5,705.5C 1108.38,702.09 1110.05,700.756 1113.5,701.5C 1113.83,694.137 1113.5,686.803 1112.5,679.5C 1110.11,679.021 1108.44,677.688 1107.5,675.5C 1113.08,674.102 1118.75,673.436 1124.5,673.5C 1124.34,674.873 1124.51,676.207 1125,677.5C 1127.17,675.177 1129.67,673.51 1132.5,672.5 Z"/></g>
<g><path style="opacity:0.911" fill="#bed7b6" d="M 1243.5,673.5 C 1252.53,674.427 1261.53,674.427 1270.5,673.5C 1270.66,676.518 1270.5,679.518 1270,682.5C 1267.69,680.84 1265.19,680.007 1262.5,680C 1264.34,685.287 1263.34,689.954 1259.5,694C 1255.05,695.884 1250.38,697.05 1245.5,697.5C 1245.71,698.086 1246.04,698.586 1246.5,699C 1251.92,699.57 1257.26,700.57 1262.5,702C 1267.69,708.232 1267.69,714.565 1262.5,721C 1254.54,726.057 1246.21,726.723 1237.5,723C 1232.26,717.274 1232.26,711.44 1237.5,705.5C 1235.78,701.263 1236.78,697.763 1240.5,695C 1235.37,691.945 1233.53,687.445 1235,681.5C 1236.73,677.57 1239.56,674.903 1243.5,673.5 Z M 1246.5,677.5 C 1251.71,679.251 1253.88,682.918 1253,688.5C 1252.8,690.286 1251.97,691.619 1250.5,692.5C 1244.66,688.66 1243.33,683.66 1246.5,677.5 Z M 1242.5,709.5 C 1246.85,709.334 1251.18,709.501 1255.5,710C 1259.77,711.635 1260.44,714.135 1257.5,717.5C 1251.92,720.232 1247.09,719.232 1243,714.5C 1242.51,712.866 1242.34,711.199 1242.5,709.5 Z"/></g>
<g><path style="opacity:0.913" fill="#bed7b7" d="M 1313.5,673.5 C 1316.83,673.5 1320.17,673.5 1323.5,673.5C 1323.33,680.508 1323.5,687.508 1324,694.5C 1325.86,699.802 1328.53,700.469 1332,696.5C 1334.23,690.732 1335.06,684.732 1334.5,678.5C 1330.76,679.401 1328.76,678.068 1328.5,674.5C 1334.15,673.968 1339.82,673.635 1345.5,673.5C 1345.33,682.506 1345.5,691.506 1346,700.5C 1347.95,701.11 1349.78,701.943 1351.5,703C 1351.04,703.414 1350.71,703.914 1350.5,704.5C 1345.54,705.494 1340.54,705.827 1335.5,705.5C 1335.66,703.801 1335.49,702.134 1335,700.5C 1329.94,707.844 1323.6,709.177 1316,704.5C 1314.15,701.431 1313.15,698.098 1313,694.5C 1312.5,689.177 1312.33,683.844 1312.5,678.5C 1310.83,678.5 1309.17,678.5 1307.5,678.5C 1307.67,677.178 1307.34,676.011 1306.5,675C 1309.04,674.814 1311.37,674.314 1313.5,673.5 Z"/></g>
<g><path style="opacity:0.902" fill="#bed7b6" d="M 1474.5,672.5 C 1478.43,673.087 1482.27,674.087 1486,675.5C 1485.68,678.454 1485.18,681.454 1484.5,684.5C 1482.83,684.5 1481.17,684.5 1479.5,684.5C 1479.55,680.925 1477.88,678.591 1474.5,677.5C 1470.45,678.406 1469.78,680.24 1472.5,683C 1476.71,684.623 1480.71,686.623 1484.5,689C 1489.91,700.656 1486.08,706.49 1473,706.5C 1469.34,706.617 1465.84,705.951 1462.5,704.5C 1461.81,701.23 1461.81,697.897 1462.5,694.5C 1464.29,694.215 1465.95,694.548 1467.5,695.5C 1468.75,701.576 1471.92,702.91 1477,699.5C 1477.51,698.004 1477.01,696.837 1475.5,696C 1470.92,694.129 1466.75,691.629 1463,688.5C 1460.22,678.391 1464.05,673.058 1474.5,672.5 Z"/></g>
<g><path style="opacity:0.903" fill="#bfd7b7" d="M 1604.5,672.5 C 1608.1,673.349 1611.77,674.016 1615.5,674.5C 1615.38,677.86 1615.05,681.193 1614.5,684.5C 1610.17,685.549 1608,683.882 1608,679.5C 1605.14,676.836 1602.64,677.17 1600.5,680.5C 1601.31,681.814 1602.31,682.981 1603.5,684C 1611.16,685.333 1615.83,689.666 1617.5,697C 1615.23,704.149 1610.23,707.316 1602.5,706.5C 1598.31,706.602 1594.31,705.769 1590.5,704C 1591.61,700.951 1592.28,697.784 1592.5,694.5C 1594.17,694.5 1595.83,694.5 1597.5,694.5C 1598.14,701.888 1601.47,703.388 1607.5,699C 1606.83,698 1606.17,697 1605.5,696C 1601.67,694.448 1598,692.615 1594.5,690.5C 1590.26,685.019 1590.59,679.852 1595.5,675C 1598.63,674.159 1601.63,673.325 1604.5,672.5 Z"/></g>
</svg>
