<svg xmlns="http://www.w3.org/2000/svg" version="1.1" xmlns:xlink="http://www.w3.org/1999/xlink" xmlns:svgjs="http://svgjs.dev/svgjs" width="1500" height="1500" viewBox="0 0 1500 1500"><rect width="1500" height="1500" fill="#ffffff"></rect><g transform="matrix(0.6666666666666666,0,0,0.6666666666666666,249.39393939393938,438.5856950067477)"><svg viewBox="0 0 396 247" data-background-color="#2f5651" preserveAspectRatio="xMidYMid meet" height="935" width="1500" xmlns="http://www.w3.org/2000/svg" xmlns:xlink="http://www.w3.org/1999/xlink"><g id="tight-bounds" transform="matrix(1,0,0,1,0.2400000000000091,-0.09999999999999432)"><svg viewBox="0 0 395.52 247.2" height="247.2" width="395.52"><g><svg></svg></g><g><svg viewBox="0 0 395.52 247.2" height="247.2" width="395.52"><g transform="matrix(1,0,0,1,75.54432,103.40030004175243)"><svg viewBox="0 0 244.43135999999998 40.39939991649513" height="40.39939991649513" width="244.43135999999998"><g><svg viewBox="0 0 244.43135999999998 40.39939991649513" height="40.39939991649513" width="244.43135999999998"><g><svg viewBox="0 0 244.43135999999998 40.39939991649513" height="40.39939991649513" width="244.43135999999998"><g><svg viewBox="0 0 244.43135999999998 40.39939991649513" height="40.39939991649513" width="244.43135999999998"><g id="textblocktransform"><svg viewBox="0 0 244.43135999999998 40.39939991649513" height="40.39939991649513" width="244.43135999999998" id="textblock"><g><svg viewBox="0 0 244.43135999999998 21.789505886757137" height="21.789505886757137" width="244.43135999999998"><g transform="matrix(1,0,0,1,0,0)"><svg width="244.43135999999998" viewBox="4 -36.01 521.68 46.51" height="21.789505886757137" data-palette-color="#bfd7b7"><path d="M26.49-14.99L9.5-14.99Q8.47-14.99 7.56-15.39 6.64-15.8 5.96-16.47 5.27-17.14 4.88-18.05 4.49-18.97 4.49-20L4.49-20 4.49-30Q4.49-31.03 4.88-31.95 5.27-32.86 5.96-33.53 6.64-34.2 7.56-34.61 8.47-35.01 9.5-35.01L9.5-35.01 26.49-35.01Q27.51-35.01 28.43-34.61 29.35-34.2 30.03-33.53 30.71-32.86 31.1-31.95 31.49-31.03 31.49-30L31.49-30 31.49-25.49 26.49-25.49 26.49-30 9.5-30 9.5-20 26.49-20Q27.51-20 28.43-19.6 29.35-19.21 30.03-18.53 30.71-17.85 31.1-16.93 31.49-16.02 31.49-14.99L31.49-14.99 31.49-5Q31.49-3.98 31.1-3.06 30.71-2.15 30.03-1.46 29.35-0.78 28.43-0.39 27.51 0 26.49 0L26.49 0 9.01 0Q7.98 0 7.07-0.39 6.15-0.78 5.47-1.46 4.79-2.15 4.39-3.06 4-3.98 4-5L4-5 4-9.5 9.01-9.5 9.01-5 26.49-5 26.49-14.99ZM40.26-26L45.07-26 45.07 0 40.26 0 40.26-26ZM40.01-31.01L40.01-36.01 45.31-36.01 45.31-31.01 40.01-31.01ZM51.8-21.19L51.8-26 58.15-26 58.15-34.01 62.96-34.01 62.96-26 71.5-26 71.5-21.19 62.96-21.19 62.96-4.81 71.5-4.81 71.5 0 62.96 0Q61.98 0 61.1-0.38 60.22-0.76 59.57-1.4 58.91-2.05 58.53-2.93 58.15-3.81 58.15-4.81L58.15-4.81 58.15-21.19 51.8-21.19ZM79.51-4.81L79.51-11.35Q79.51-12.35 79.89-13.22 80.27-14.09 80.91-14.75 81.56-15.41 82.44-15.78 83.32-16.16 84.29-16.16L84.29-16.16 96.7-16.16 96.7-21.19 81-21.19 81-26 96.7-26Q97.7-26 98.58-25.62 99.46-25.24 100.1-24.6 100.75-23.95 101.13-23.07 101.51-22.19 101.51-21.19L101.51-21.19 101.51 0 96.7 0 96.7-4.39Q96.62-3.49 96.21-2.69 95.79-1.88 95.15-1.28 94.5-0.68 93.67-0.34 92.84 0 91.91 0L91.91 0 84.29 0Q83.32 0 82.44-0.38 81.56-0.76 80.91-1.4 80.27-2.05 79.89-2.93 79.51-3.81 79.51-4.81L79.51-4.81ZM84.29-11.35L84.29-4.81 96.7-4.81 96.7-11.35 84.29-11.35ZM121.91 0L116.91 0 106.51-26 111.51-26 119.4-5.76 127.31-26 132.31-26 121.91 0ZM137.32-4.81L137.32-11.35Q137.32-12.35 137.7-13.22 138.07-14.09 138.72-14.75 139.37-15.41 140.25-15.78 141.13-16.16 142.1-16.16L142.1-16.16 154.5-16.16 154.5-21.19 138.81-21.19 138.81-26 154.5-26Q155.51-26 156.38-25.62 157.26-25.24 157.91-24.6 158.56-23.95 158.94-23.07 159.31-22.19 159.31-21.19L159.31-21.19 159.31 0 154.5 0 154.5-4.39Q154.43-3.49 154.02-2.69 153.6-1.88 152.95-1.28 152.31-0.68 151.48-0.34 150.65 0 149.72 0L149.72 0 142.1 0Q141.13 0 140.25-0.38 139.37-0.76 138.72-1.4 138.07-2.05 137.7-2.93 137.32-3.81 137.32-4.81L137.32-4.81ZM142.1-11.35L142.1-4.81 154.5-4.81 154.5-11.35 142.1-11.35ZM179.79-30L179.79-35.01 207.8-35.01 207.8-30 196.3-30 196.3 0 191.29 0 191.29-30 179.79-30ZM225-21.19L215.09-21.19 215.09 0 210.31 0 210.31-26 215.09-26 215.09-21.41Q215.14-22.36 215.53-23.21 215.92-24.05 216.57-24.67 217.22-25.29 218.07-25.65 218.93-26 219.9-26L219.9-26 225-26Q226.01-26 226.87-25.62 227.74-25.24 228.4-24.6 229.06-23.95 229.44-23.07 229.81-22.19 229.81-21.19L229.81-21.19 229.81-16.8 225-16.8 225-21.19ZM235.79-4.81L235.79-11.35Q235.79-12.35 236.17-13.22 236.55-14.09 237.2-14.75 237.84-15.41 238.72-15.78 239.6-16.16 240.58-16.16L240.58-16.16 252.98-16.16 252.98-21.19 237.28-21.19 237.28-26 252.98-26Q253.98-26 254.86-25.62 255.74-25.24 256.39-24.6 257.03-23.95 257.41-23.07 257.79-22.19 257.79-21.19L257.79-21.19 257.79 0 252.98 0 252.98-4.39Q252.91-3.49 252.49-2.69 252.08-1.88 251.43-1.28 250.78-0.68 249.95-0.34 249.12 0 248.2 0L248.2 0 240.58 0Q239.6 0 238.72-0.38 237.84-0.76 237.2-1.4 236.55-2.05 236.17-2.93 235.79-3.81 235.79-4.81L235.79-4.81ZM240.58-11.35L240.58-4.81 252.98-4.81 252.98-11.35 240.58-11.35ZM278.2 0L273.19 0 262.79-26 267.8-26 275.68-5.76 283.59-26 288.6-26 278.2 0ZM315.6-21.19L315.6-10.55 298.39-10.55 298.39-4.81 315.6-4.81 315.6 0 298.39 0Q297.41 0 296.53-0.38 295.65-0.76 295-1.4 294.36-2.05 293.98-2.93 293.6-3.81 293.6-4.81L293.6-4.81 293.6-21.19Q293.6-22.19 293.98-23.07 294.36-23.95 295-24.6 295.65-25.24 296.53-25.62 297.41-26 298.39-26L298.39-26 310.79-26Q311.79-26 312.67-25.62 313.55-25.24 314.19-24.6 314.84-23.95 315.22-23.07 315.6-22.19 315.6-21.19L315.6-21.19ZM310.79-21.19L298.39-21.19 298.39-15.36 310.79-15.36 310.79-21.19ZM323.6-36.01L328.39-36.01 328.39 0 323.6 0 323.6-36.01ZM351.38-4.81L351.38-11.35Q351.38-12.35 351.76-13.22 352.14-14.09 352.78-14.75 353.43-15.41 354.31-15.78 355.19-16.16 356.17-16.16L356.17-16.16 368.57-16.16 368.57-21.19 352.87-21.19 352.87-26 368.57-26Q369.57-26 370.45-25.62 371.33-25.24 371.97-24.6 372.62-23.95 373-23.07 373.38-22.19 373.38-21.19L373.38-21.19 373.38 0 368.57 0 368.57-4.39Q368.5-3.49 368.08-2.69 367.67-1.88 367.02-1.28 366.37-0.68 365.54-0.34 364.71 0 363.78 0L363.78 0 356.17 0Q355.19 0 354.31-0.38 353.43-0.76 352.78-1.4 352.14-2.05 351.76-2.93 351.38-3.81 351.38-4.81L351.38-4.81ZM356.17-11.35L356.17-4.81 368.57-4.81 368.57-11.35 356.17-11.35ZM381.38-5.81L381.38-21.19Q381.38-22.19 381.76-23.07 382.14-23.95 382.79-24.6 383.43-25.24 384.31-25.62 385.19-26 386.17-26L386.17-26 394.79-26Q395.74-26 396.59-25.65 397.45-25.29 398.09-24.67 398.74-24.05 399.14-23.21 399.55-22.36 399.57-21.41L399.57-21.41 399.57-26 404.38-26 404.38 5.69Q404.38 6.69 404 7.57 403.62 8.45 402.98 9.09 402.33 9.74 401.45 10.12 400.57 10.5 399.57 10.5L399.57 10.5 384.39 10.5 384.39 5.69 399.57 5.69 399.57-1 386.17-1Q385.19-1 384.31-1.38 383.43-1.76 382.79-2.4 382.14-3.05 381.76-3.93 381.38-4.81 381.38-5.81L381.38-5.81ZM386.17-5.81L399.57-5.81 399.57-21.19 386.17-21.19 386.17-5.81ZM434.38-21.19L434.38-10.55 417.17-10.55 417.17-4.81 434.38-4.81 434.38 0 417.17 0Q416.2 0 415.32-0.38 414.44-0.76 413.79-1.4 413.14-2.05 412.77-2.93 412.39-3.81 412.39-4.81L412.39-4.81 412.39-21.19Q412.39-22.19 412.77-23.07 413.14-23.95 413.79-24.6 414.44-25.24 415.32-25.62 416.2-26 417.17-26L417.17-26 429.57-26Q430.58-26 431.45-25.62 432.33-25.24 432.98-24.6 433.63-23.95 434.01-23.07 434.38-22.19 434.38-21.19L434.38-21.19ZM429.57-21.19L417.17-21.19 417.17-15.36 429.57-15.36 429.57-21.19ZM465.39-21.19L465.39 0 460.58 0 460.58-21.19 447.17-21.19 447.17 0 442.39 0 442.39-26 447.17-26 447.17-21.41Q447.22-22.36 447.61-23.21 448-24.05 448.65-24.67 449.3-25.29 450.15-25.65 451.01-26 451.98-26L451.98-26 460.58-26Q461.58-26 462.46-25.62 463.34-25.24 463.98-24.6 464.63-23.95 465.01-23.07 465.39-22.19 465.39-21.19L465.39-21.19ZM490.58-21.19L478.18-21.19 478.18-4.81 490.58-4.81 490.58-9.2 495.39-9.2 495.39-4.81Q495.39-3.81 495.01-2.93 494.63-2.05 493.99-1.4 493.34-0.76 492.46-0.38 491.58 0 490.58 0L490.58 0 478.18 0Q477.2 0 476.32-0.38 475.44-0.76 474.8-1.4 474.15-2.05 473.77-2.93 473.39-3.81 473.39-4.81L473.39-4.81 473.39-21.19Q473.39-22.19 473.77-23.07 474.15-23.95 474.8-24.6 475.44-25.24 476.32-25.62 477.2-26 478.18-26L478.18-26 490.58-26Q491.58-26 492.46-25.62 493.34-25.24 493.99-24.6 494.63-23.95 495.01-23.07 495.39-22.19 495.39-21.19L495.39-21.19 495.39-16.8 490.58-16.8 490.58-21.19ZM509.94 10.5L505.15 10.5 510.6-2.34 500.39-26 505.45-26 513.04-8.11 520.63-26 525.68-26 509.94 10.5Z" opacity="1" transform="matrix(1,0,0,1,0,0)" fill="#000000" class="wordmark-text-0" data-fill-palette-color="primary" id="text-0"></path></svg></g></svg></g><g transform="matrix(1,0,0,1,0,26.933485278479214)"><svg viewBox="0 0 244.43135999999998 13.46591463801591" height="13.46591463801591" width="244.43135999999998"><g transform="matrix(1,0,0,1,0,0)"><svg width="244.43135999999998" viewBox="1 -33 839.52 46.25" height="13.46591463801591" data-palette-color="#bfd7b7"><path d="M15.65-33L15.65-33 16.4-31.05 13.1-30.25Q13.85-28.6 14.93-26.03 16-23.45 17.45-20.45 18.9-17.45 20.65-14.35L20.65-14.35 14.6-9.9Q13.5-12.35 12.23-15.1 10.95-17.85 9.68-20.63 8.4-23.4 7.15-25.85 5.9-28.3 4.85-30.15L4.85-30.15 1-31.05 1.65-33Q3.2-32.95 4.7-32.9 6.2-32.85 8.15-32.85L8.15-32.85Q10.8-32.85 12.55-32.9 14.3-32.95 15.65-33ZM13.55-13.75L20.65-14.85Q20.6-12.2 20.58-10.23 20.55-8.25 20.6-6.55 20.65-4.85 20.7-2.95L20.7-2.95 25.75-1.9 25.1 0Q23.8-0.1 21.85-0.13 19.9-0.15 16.95-0.15L16.95-0.15Q13.9-0.15 12.25-0.1 10.6-0.05 9.1 0L9.1 0 8.45-1.9 13.55-2.95Q13.65-4.9 13.68-6.45 13.7-8 13.68-9.7 13.65-11.4 13.55-13.75L13.55-13.75ZM31.8-33L31.8-33 32.55-31.05 28.55-30Q27.6-28.4 26.4-26 25.2-23.6 23.9-20.85 22.6-18.1 21.4-15.35 20.2-12.6 19.3-10.25L19.3-10.25 17.3-13.95Q18.2-15.6 19.15-17.73 20.1-19.85 20.98-22.13 21.85-24.4 22.58-26.48 23.3-28.55 23.8-30.1L23.8-30.1 19.65-31.05 20.35-33Q21.9-32.95 23.2-32.9 24.5-32.85 26.2-32.85L26.2-32.85Q27.9-32.85 29.2-32.9 30.5-32.95 31.8-33ZM72.19-21.7L72.19-21.7Q75.89-21.7 78.36-20.15 80.84-18.6 82.06-16.1 83.29-13.6 83.29-10.7L83.29-10.7Q83.29-7.75 82.04-5.18 80.79-2.6 78.29-1.05 75.79 0.5 72.04 0.5L72.04 0.5Q68.29 0.5 65.74-1.07 63.19-2.65 61.89-5.25 60.59-7.85 60.59-10.8L60.59-10.8Q60.59-13.7 61.86-16.18 63.14-18.65 65.71-20.18 68.29-21.7 72.19-21.7ZM67.59-11.85L67.59-11.85Q67.59-9.35 68.16-7.1 68.74-4.85 69.89-3.45 71.04-2.05 72.64-2.05L72.64-2.05Q74.54-2.05 75.46-4.13 76.39-6.2 76.39-9.3L76.39-9.3Q76.39-11.8 75.81-14.03 75.24-16.25 74.11-17.68 72.99-19.1 71.34-19.1L71.34-19.1Q69.44-19.1 68.51-17.03 67.59-14.95 67.59-11.85ZM121.83 0.85L121.83 0.85Q118.68 0.85 116.9-1.3 115.13-3.45 114.88-7.55L114.88-7.55Q114.78-9.3 114.78-11.88 114.78-14.45 114.83-18.35L114.83-18.35 111.28-18.9 110.68-20.95Q113.58-20.95 116.4-21.15 119.23-21.35 121.68-21.7L121.68-21.7Q121.58-19.4 121.45-17.48 121.33-15.55 121.33-13.58 121.33-11.6 121.48-9L121.48-9Q121.63-6.1 122.83-5 124.03-3.9 125.18-3.9L125.18-3.9Q126.38-4.15 127.43-5.53 128.48-6.9 129.13-8.88 129.78-10.85 129.78-12.8L129.78-12.8 131.08-8.55Q130.78-6.1 129.53-3.95 128.28-1.8 126.3-0.48 124.33 0.85 121.83 0.85ZM130.18 0L130.18 0Q130.13-1.5 130-3.2 129.88-4.9 129.83-7.25L129.83-7.25 129.53-18.3 125.93-18.9 125.33-20.95Q128.28-20.95 131.03-21.15 133.78-21.35 136.28-21.7L136.28-21.7Q136.28-21.7 136.25-20.55 136.23-19.4 136.2-17.7 136.18-16 136.13-14.33 136.08-12.65 136.05-11.5 136.03-10.35 136.03-10.35L136.03-10.35Q136.08-8.65 136.2-7.13 136.33-5.6 136.53-2.9L136.53-2.9 140.28-1.85 139.33 0Q138.03-0.1 136.9-0.1 135.78-0.1 134.03-0.1L134.03-0.1Q133.28-0.1 132.08-0.05 130.88 0 130.18 0ZM216.16-21.8L216.16-21.8Q218.81-21.8 220.76-20.18 222.71-18.55 222.71-15.25L222.71-15.25Q222.71-13.1 222.63-11.65 222.56-10.2 222.48-9.08 222.41-7.95 222.41-6.75L222.41-6.75Q222.41-5.35 222.58-4.78 222.76-4.2 223.56-4.2L223.56-4.2Q224.26-4.2 225.66-4.85L225.66-4.85 226.56-2.65Q224.76-1.4 223.11-0.58 221.46 0.25 219.61 0.25L219.61 0.25Q218.06 0.25 216.91-0.98 215.76-2.2 215.76-4.85L215.76-4.85Q215.76-7.3 215.98-9.68 216.21-12.05 216.21-13.9L216.21-13.9Q216.21-15.45 215.76-16.4 215.31-17.35 214.26-17.7L214.26-17.7Q211.96-17.6 209.86-16.85 207.76-16.1 205.56-14.95L205.56-14.95 204.26-17.1Q207.11-19.2 210.03-20.5 212.96-21.8 216.16-21.8ZM219.71-13.95L219.71-13.95 216.71-9.8Q215.61-9.55 214.76-9.3 213.91-9.05 213.21-8.9L213.21-8.9Q211.51-8.55 210.86-8.03 210.21-7.5 210.21-6.2L210.21-6.2Q210.21-5.15 210.76-4.55 211.31-3.95 212.26-3.95L212.26-3.95Q213.41-3.95 215.18-5.03 216.96-6.1 218.21-7.75L218.21-7.75 219.16-5.7Q218.36-4.7 216.88-3.25 215.41-1.8 213.36-0.68 211.31 0.45 208.86 0.45L208.86 0.45Q207.61 0.45 206.43-0.23 205.26-0.9 204.48-2.25 203.71-3.6 203.71-5.6L203.71-5.6Q203.71-7.7 204.98-8.88 206.26-10.05 208.46-10.7 210.66-11.35 213.31-11.8L213.31-11.8Q215.11-12.1 216.66-12.58 218.21-13.05 219.71-13.95ZM264.35-21.7L264.35-21.7Q264.4-20.55 264.5-19 264.6-17.45 264.7-16.18 264.8-14.9 264.8-14.45L264.8-14.45 265.15-3.1 270.1-1.85 269.35 0Q268.5-0.05 267.1-0.08 265.7-0.1 264.2-0.13 262.7-0.15 261.5-0.15L261.5-0.15Q259.95-0.15 258.15-0.1 256.35-0.05 254.85 0L254.85 0 254.1-1.85 258.15-2.9Q258.15-5.15 258.15-6.93 258.15-8.7 258.15-10.8L258.15-10.8Q258.15-11.95 258.12-12.93 258.1-13.9 258.05-15.13 258-16.35 257.85-18.15L257.85-18.15 254.45-18.7 253.75-20.8Q254.9-20.85 256.82-20.95 258.75-21.05 260.8-21.25 262.85-21.45 264.35-21.7ZM271.05-21.8L271.05-21.8Q272.45-21.8 273.65-21.28 274.85-20.75 275.95-19.6L275.95-19.6Q275.65-18.1 275.4-17 275.15-15.9 274.82-14.83 274.5-13.75 274.05-12.2L274.05-12.2 271.25-12.2Q270.9-14.05 270.22-15.43 269.55-16.8 268.4-17.3L268.4-17.3Q267.15-16.5 266.02-14.33 264.9-12.15 264.9-8.55L264.9-8.55 262.95-11.45Q263.35-14.25 264.5-16.6 265.65-18.95 267.32-20.38 269-21.8 271.05-21.8ZM314.49-21.85L314.49-21.85Q316.99-21.85 319.11-20.75 321.24-19.65 322.51-17.43 323.79-15.2 323.79-11.85L323.79-11.85Q322.69-11.65 320.89-11.5 319.09-11.35 316.94-11.28 314.79-11.2 312.64-11.2L312.64-11.2Q311.04-11.2 309.89-11.25 308.74-11.3 308.34-11.35L308.34-11.35 308.34-13.75Q308.89-13.75 310.01-13.75 311.14-13.75 312.54-13.8 313.94-13.85 315.26-13.95 316.59-14.05 317.49-14.2L317.49-14.2Q317.44-15.25 316.91-16.32 316.39-17.4 315.34-18.15 314.29-18.9 312.64-18.9L312.64-18.9Q311.64-17.95 311.04-16.28 310.44-14.6 310.44-12.4L310.44-12.4Q310.44-7.9 312.31-5.78 314.19-3.65 316.94-3.65L316.94-3.65Q319.74-3.65 322.84-5.65L322.84-5.65 323.94-3.35Q321.79-1.4 319.34-0.55 316.89 0.3 314.49 0.3L314.49 0.3Q311.69 0.3 309.26-0.93 306.84-2.15 305.36-4.6 303.89-7.05 303.89-10.7L303.89-10.7Q303.89-14.4 305.41-16.88 306.94-19.35 309.36-20.6 311.79-21.85 314.49-21.85ZM399.27-21.7L399.27-21.7Q402.97-21.7 405.44-20.15 407.92-18.6 409.14-16.1 410.37-13.6 410.37-10.7L410.37-10.7Q410.37-7.75 409.12-5.18 407.87-2.6 405.37-1.05 402.87 0.5 399.12 0.5L399.12 0.5Q395.37 0.5 392.82-1.07 390.27-2.65 388.97-5.25 387.67-7.85 387.67-10.8L387.67-10.8Q387.67-13.7 388.94-16.18 390.22-18.65 392.79-20.18 395.37-21.7 399.27-21.7ZM394.67-11.85L394.67-11.85Q394.67-9.35 395.24-7.1 395.82-4.85 396.97-3.45 398.12-2.05 399.72-2.05L399.72-2.05Q401.62-2.05 402.54-4.13 403.47-6.2 403.47-9.3L403.47-9.3Q403.47-11.8 402.89-14.03 402.32-16.25 401.19-17.68 400.07-19.1 398.42-19.1L398.42-19.1Q396.52-19.1 395.59-17.03 394.67-14.95 394.67-11.85ZM448.91 0.85L448.91 0.85Q445.76 0.85 443.98-1.3 442.21-3.45 441.96-7.55L441.96-7.55Q441.86-9.3 441.86-11.88 441.86-14.45 441.91-18.35L441.91-18.35 438.36-18.9 437.76-20.95Q440.66-20.95 443.48-21.15 446.31-21.35 448.76-21.7L448.76-21.7Q448.66-19.4 448.53-17.48 448.41-15.55 448.41-13.58 448.41-11.6 448.56-9L448.56-9Q448.71-6.1 449.91-5 451.11-3.9 452.26-3.9L452.26-3.9Q453.46-4.15 454.51-5.53 455.56-6.9 456.21-8.88 456.86-10.85 456.86-12.8L456.86-12.8 458.16-8.55Q457.86-6.1 456.61-3.95 455.36-1.8 453.38-0.48 451.41 0.85 448.91 0.85ZM457.26 0L457.26 0Q457.21-1.5 457.08-3.2 456.96-4.9 456.91-7.25L456.91-7.25 456.61-18.3 453.01-18.9 452.41-20.95Q455.36-20.95 458.11-21.15 460.86-21.35 463.36-21.7L463.36-21.7Q463.36-21.7 463.33-20.55 463.31-19.4 463.28-17.7 463.26-16 463.21-14.33 463.16-12.65 463.13-11.5 463.11-10.35 463.11-10.35L463.11-10.35Q463.16-8.65 463.28-7.13 463.41-5.6 463.61-2.9L463.61-2.9 467.36-1.85 466.41 0Q465.11-0.1 463.98-0.1 462.86-0.1 461.11-0.1L461.11-0.1Q460.36-0.1 459.16-0.05 457.96 0 457.26 0ZM505.15-21.7L505.15-21.7Q505.2-20.55 505.3-19 505.4-17.45 505.5-16.18 505.6-14.9 505.6-14.45L505.6-14.45 505.95-3.1 510.9-1.85 510.15 0Q509.3-0.05 507.9-0.08 506.5-0.1 505-0.13 503.5-0.15 502.3-0.15L502.3-0.15Q500.75-0.15 498.95-0.1 497.15-0.05 495.65 0L495.65 0 494.9-1.85 498.95-2.9Q498.95-5.15 498.95-6.93 498.95-8.7 498.95-10.8L498.95-10.8Q498.95-11.95 498.92-12.93 498.9-13.9 498.85-15.13 498.8-16.35 498.65-18.15L498.65-18.15 495.25-18.7 494.55-20.8Q495.7-20.85 497.62-20.95 499.55-21.05 501.6-21.25 503.65-21.45 505.15-21.7ZM511.85-21.8L511.85-21.8Q513.25-21.8 514.45-21.28 515.65-20.75 516.75-19.6L516.75-19.6Q516.45-18.1 516.2-17 515.95-15.9 515.62-14.83 515.3-13.75 514.85-12.2L514.85-12.2 512.05-12.2Q511.7-14.05 511.02-15.43 510.35-16.8 509.2-17.3L509.2-17.3Q507.95-16.5 506.82-14.33 505.7-12.15 505.7-8.55L505.7-8.55 503.75-11.45Q504.15-14.25 505.3-16.6 506.45-18.95 508.12-20.38 509.8-21.8 511.85-21.8ZM586.43-9.15L586.43-9.15 588.83-8.55Q587.68-6.55 587.68-5.55L587.68-5.55Q587.68-4.2 589.13-3.9 590.58-3.6 592.58-3.5L592.58-3.5Q594.13-3.4 595.78-3.18 597.43-2.95 598.85-2.27 600.28-1.6 601.15-0.18 602.03 1.25 602.03 3.75L602.03 3.75Q602.03 6.2 600.7 8.38 599.38 10.55 596.63 11.9 593.88 13.25 589.68 13.25L589.68 13.25Q586.48 13.25 584.33 12.3 582.18 11.35 581.08 9.8 579.98 8.25 579.98 6.5L579.98 6.5Q579.98 4.3 581.65 2.23 583.33 0.15 586.73-1L586.73-1 587.68-0.45Q586.68 0.75 586.2 1.95 585.73 3.15 585.73 4.3L585.73 4.3Q585.73 6.55 587.55 8.1 589.38 9.65 592.63 9.65L592.63 9.65Q594.73 9.65 596.38 8.68 598.03 7.7 598.03 5.5L598.03 5.5Q598.03 3.9 596.15 3.08 594.28 2.25 589.58 2.25L589.58 2.25Q586.33 2.25 584.23 1 582.13-0.25 582.13-3.15L582.13-3.15Q583.68-5.15 584.58-6.45 585.48-7.75 586.43-9.15ZM589.08-19.45L589.08-19.45Q588.08-18.75 587.7-17.3 587.33-15.85 587.33-14.65L587.33-14.65Q587.33-13.35 587.93-11.95 588.53-10.55 589.58-9.6 590.63-8.65 592.03-8.65L592.03-8.65Q592.88-9.05 593.4-10.4 593.93-11.75 593.93-13.45L593.93-13.45Q593.93-14.75 593.23-16.13 592.53-17.5 591.43-18.48 590.33-19.45 589.08-19.45ZM590.43-21.55L590.43-21.55Q593.88-21.55 596-20.48 598.13-19.4 599.13-17.68 600.13-15.95 600.13-14L600.13-14Q600.13-11.9 599.03-10.13 597.93-8.35 595.73-7.28 593.53-6.2 590.23-6.2L590.23-6.2Q587.33-6.2 585.25-7.23 583.18-8.25 582.08-9.95 580.98-11.65 580.98-13.7L580.98-13.7Q580.98-15.8 582.05-17.57 583.13-19.35 585.23-20.45 587.33-21.55 590.43-21.55ZM605.08-21.15L605.08-21.15Q605.08-19.9 605.03-18.43 604.98-16.95 604.98-16.25L604.98-16.25Q602.53-17.3 600.7-17.85 598.88-18.4 597.13-18.6L597.13-18.6 594.78-20.5Q596.38-20.7 598.48-20.85 600.58-21 602.4-21.08 604.23-21.15 605.08-21.15ZM641.31 0.85L641.31 0.85Q638.16 0.85 636.39-1.3 634.61-3.45 634.36-7.55L634.36-7.55Q634.26-9.3 634.26-11.88 634.26-14.45 634.31-18.35L634.31-18.35 630.76-18.9 630.16-20.95Q633.06-20.95 635.89-21.15 638.71-21.35 641.16-21.7L641.16-21.7Q641.06-19.4 640.94-17.48 640.81-15.55 640.81-13.58 640.81-11.6 640.96-9L640.96-9Q641.11-6.1 642.31-5 643.51-3.9 644.66-3.9L644.66-3.9Q645.86-4.15 646.91-5.53 647.96-6.9 648.61-8.88 649.26-10.85 649.26-12.8L649.26-12.8 650.56-8.55Q650.26-6.1 649.01-3.95 647.76-1.8 645.79-0.48 643.81 0.85 641.31 0.85ZM649.66 0L649.66 0Q649.61-1.5 649.49-3.2 649.36-4.9 649.31-7.25L649.31-7.25 649.01-18.3 645.41-18.9 644.81-20.95Q647.76-20.95 650.51-21.15 653.26-21.35 655.76-21.7L655.76-21.7Q655.76-21.7 655.74-20.55 655.71-19.4 655.69-17.7 655.66-16 655.61-14.33 655.56-12.65 655.54-11.5 655.51-10.35 655.51-10.35L655.51-10.35Q655.56-8.65 655.69-7.13 655.81-5.6 656.01-2.9L656.01-2.9 659.76-1.85 658.81 0Q657.51-0.1 656.39-0.1 655.26-0.1 653.51-0.1L653.51-0.1Q652.76-0.1 651.56-0.05 650.36 0 649.66 0ZM697.8-21.85L697.8-21.85Q700.3-21.85 702.43-20.75 704.55-19.65 705.83-17.43 707.1-15.2 707.1-11.85L707.1-11.85Q706-11.65 704.2-11.5 702.4-11.35 700.25-11.28 698.1-11.2 695.95-11.2L695.95-11.2Q694.35-11.2 693.2-11.25 692.05-11.3 691.65-11.35L691.65-11.35 691.65-13.75Q692.2-13.75 693.33-13.75 694.45-13.75 695.85-13.8 697.25-13.85 698.58-13.95 699.9-14.05 700.8-14.2L700.8-14.2Q700.75-15.25 700.23-16.32 699.7-17.4 698.65-18.15 697.6-18.9 695.95-18.9L695.95-18.9Q694.95-17.95 694.35-16.28 693.75-14.6 693.75-12.4L693.75-12.4Q693.75-7.9 695.63-5.78 697.5-3.65 700.25-3.65L700.25-3.65Q703.05-3.65 706.15-5.65L706.15-5.65 707.25-3.35Q705.1-1.4 702.65-0.55 700.2 0.3 697.8 0.3L697.8 0.3Q695 0.3 692.58-0.93 690.15-2.15 688.68-4.6 687.2-7.05 687.2-10.7L687.2-10.7Q687.2-14.4 688.73-16.88 690.25-19.35 692.68-20.6 695.1-21.85 697.8-21.85ZM735.24-1.3L735.24-1.3Q735.64-3.2 735.92-4.48 736.19-5.75 736.39-7.25L736.39-7.25 738.89-7.25 739.69-3.35Q740.34-2.8 741.24-2.5 742.14-2.2 743.04-2.2L743.04-2.2Q744.29-2.2 745.27-2.8 746.24-3.4 746.24-4.65L746.24-4.65Q746.24-5.7 745.47-6.38 744.69-7.05 743.49-7.58 742.29-8.1 740.94-8.63 739.59-9.15 738.39-9.95 737.19-10.75 736.42-11.95 735.64-13.15 735.64-15L735.64-15Q735.64-17.55 736.89-19.03 738.14-20.5 740.17-21.15 742.19-21.8 744.44-21.8L744.44-21.8Q746.19-21.8 748.09-21.4 749.99-21 751.54-20.25L751.54-20.25Q751.14-18.5 750.82-17.15 750.49-15.8 750.24-14.5L750.24-14.5 747.64-14.55 746.99-17.95Q746.09-19.15 744.04-19.15L744.04-19.15Q742.94-19.15 742.02-18.65 741.09-18.15 741.09-17L741.09-17Q741.09-15.9 741.89-15.23 742.69-14.55 743.97-14.05 745.24-13.55 746.69-12.98 748.14-12.4 749.42-11.55 750.69-10.7 751.49-9.38 752.29-8.05 752.29-6L752.29-6Q752.29-3.6 750.99-2.18 749.69-0.75 747.54-0.13 745.39 0.5 742.89 0.5L742.89 0.5Q740.99 0.5 739.04 0.1 737.09-0.3 735.24-1.3ZM789.08-27.6L789.08-27.6Q788.98-25.85 788.93-23.53 788.88-21.2 788.86-18.73 788.83-16.25 788.86-14 788.88-11.75 788.91-10.1 788.93-8.45 788.98-7.8L788.98-7.8Q789.08-5.95 789.63-5.2 790.18-4.45 791.38-4.45L791.38-4.45Q792.23-4.45 793.18-4.75 794.13-5.05 795.68-6L795.68-6 796.68-4Q795.43-2.95 794.01-1.9 792.58-0.85 790.91-0.18 789.23 0.5 787.18 0.5L787.18 0.5Q786.03 0.5 784.93 0.03 783.83-0.45 783.16-1.63 782.48-2.8 782.48-4.8L782.48-4.8Q782.48-4.75 782.51-5.7 782.53-6.65 782.56-8.22 782.58-9.8 782.63-11.55 782.68-13.3 782.71-14.85 782.73-16.4 782.76-17.38 782.78-18.35 782.78-18.25L782.78-18.25Q782.73-18.8 782.16-19.2 781.58-19.6 780.83-19.9 780.08-20.2 779.48-20.45 778.88-20.7 778.83-21L778.83-21Q780.03-21.2 780.88-21.4 781.73-21.6 782.73-21.85L782.73-21.85Q783.83-23.3 784.71-24.58 785.58-25.85 786.73-27.6L786.73-27.6Q787.18-27.6 787.88-27.6 788.58-27.6 789.08-27.6ZM778.83-21L795.98-21.05 795.98-17.4 778.83-18.4 778.83-21ZM823.47-1.3L823.47-1.3Q823.87-3.2 824.15-4.48 824.42-5.75 824.62-7.25L824.62-7.25 827.12-7.25 827.92-3.35Q828.57-2.8 829.47-2.5 830.37-2.2 831.27-2.2L831.27-2.2Q832.52-2.2 833.5-2.8 834.47-3.4 834.47-4.65L834.47-4.65Q834.47-5.7 833.7-6.38 832.92-7.05 831.72-7.58 830.52-8.1 829.17-8.63 827.82-9.15 826.62-9.95 825.42-10.75 824.65-11.95 823.87-13.15 823.87-15L823.87-15Q823.87-17.55 825.12-19.03 826.37-20.5 828.4-21.15 830.42-21.8 832.67-21.8L832.67-21.8Q834.42-21.8 836.32-21.4 838.22-21 839.77-20.25L839.77-20.25Q839.37-18.5 839.05-17.15 838.72-15.8 838.47-14.5L838.47-14.5 835.87-14.55 835.22-17.95Q834.32-19.15 832.27-19.15L832.27-19.15Q831.17-19.15 830.25-18.65 829.32-18.15 829.32-17L829.32-17Q829.32-15.9 830.12-15.23 830.92-14.55 832.2-14.05 833.47-13.55 834.92-12.98 836.37-12.4 837.65-11.55 838.92-10.7 839.72-9.38 840.52-8.05 840.52-6L840.52-6Q840.52-3.6 839.22-2.18 837.92-0.75 835.77-0.13 833.62 0.5 831.12 0.5L831.12 0.5Q829.22 0.5 827.27 0.1 825.32-0.3 823.47-1.3Z" opacity="1" transform="matrix(1,0,0,1,0,0)" fill="#000000" class="slogan-text-1" data-fill-palette-color="secondary" id="text-1"></path></svg></g></svg></g></svg></g></svg></g></svg></g></svg></g></svg></g><g><path d="M245.816 0c68.262 0 123.6 55.338 123.6 123.6 0 68.262-55.338 123.6-123.6 123.6-60.483 0-110.819-43.443-121.507-100.828l1 0c10.674 56.839 60.568 99.846 120.507 99.846 67.72 0 122.618-54.898 122.617-122.618 0-67.72-54.898-122.618-122.617-122.618-59.939 0-109.833 43.007-120.507 99.846l-1 0c10.687-57.385 61.024-100.828 121.507-100.828z" fill="#000000" stroke="transparent" data-fill-palette-color="tertiary"></path></g></svg></g><defs></defs></svg><rect width="395.52" height="247.2" fill="none" stroke="none" visibility="hidden"></rect></g></svg></g></svg>